<?xml version="1.0" encoding="iso-8859-1"?>
<!-- Generator: Adobe Illustrator 19.0.0, SVG Export Plug-In . SVG Version: 6.00 Build 0)  -->
<svg version="1.1" id="Capa_1" xmlns="http://www.w3.org/2000/svg" xmlns:xlink="http://www.w3.org/1999/xlink" x="0px" y="0px"
	 viewBox="0 0 512 512" style="enable-background:new 0 0 512 512;" xml:space="preserve">
<linearGradient id="SVGID_1_" gradientUnits="userSpaceOnUse" x1="0.003" y1="257.9961" x2="512.003" y2="257.9961" gradientTransform="matrix(1 0 0 -1 -4.789781e-004 513.9936)">
	<stop  offset="0" style="stop-color:#00F2FE"/>
	<stop  offset="0.021" style="stop-color:#03EFFE"/>
	<stop  offset="0.293" style="stop-color:#24D2FE"/>
	<stop  offset="0.554" style="stop-color:#3CBDFE"/>
	<stop  offset="0.796" style="stop-color:#4AB0FE"/>
	<stop  offset="1" style="stop-color:#4FACFE"/>
</linearGradient>
<path style="fill:url(#SVGID_1_);" d="M511.997,222.998c0-20.749-8.642-39.9-23.355-53.218c2.003-6.692,3.035-13.694,3.035-20.793
	c0-35.871-26.37-65.691-60.74-71.113C424.71,44.422,395.164,19,359.738,19c-15.108,0-29.456,4.784-41.313,13.295
	C304.007,12.559,280.808,0,255.375,0c-25.622,0-48.405,12.465-62.677,31.685C181.012,23.561,167.001,19,152.262,19
	c-35.426,0-64.971,25.422-71.198,58.874c-34.371,5.421-60.741,35.243-60.741,71.113c0,8.556,2.011,18.736,5.291,27.893
	C9.185,193.07,0.002,212.921,0.002,232.998c0,39.701,32.299,71.999,71.999,71.999c13.625,0,24.095-1.482,33.332-2.79
	c10.12-1.433,19.189-2.706,32.145-2.223c10.18,27.42,36.604,47.013,67.522,47.013c15.939,0,33.589-0.373,51.909-1.906
	c0.61,0.701,1.255,1.381,1.976,2.007c37.974,32.975,77.239,67.071,116.947,153.266c3.373,7.322,10.612,11.637,18.178,11.637
	c2.8,0,5.646-0.591,8.355-1.84c10.032-4.621,14.418-16.501,9.797-26.533c-18.339-39.81-36.89-69.686-55.164-93.496
	c22.823,5.639,45.861,8.865,66.499,8.865c38.874,0,70.499-31.626,70.499-70.499c0-16.824-5.965-32.291-15.907-44.424
	C498.439,271.337,511.997,248.723,511.997,222.998z M439.998,254.998c-1.165,0-2.328,0.102-3.476,0.305l-17,3
	c-10.212,1.802-17.353,11.109-16.448,21.439c0.905,10.33,9.554,18.256,19.924,18.256c17.093,0,31,13.683,31,30.5
	c0,16.817-13.682,30.5-30.5,30.5c-32.38,0-72.806-9.638-105.513-24.128c11.279-3.052,22.39-6.847,33.097-11.578
	c10.103-4.465,14.674-16.273,10.21-26.377c-4.465-10.104-16.273-14.676-26.377-10.211C294.209,304.69,244.104,306.997,205,306.997
	c-17.645,0-32-14.355-32-32s14.355-32,32-32c28.001,0,49.222-4.393,64.874-13.43C288.012,219.097,298,202.204,298,181.998
	c0-33.084-26.916-59.999-59.999-59.999c-11.046,0-20,8.954-20,20s8.954,20,20,20c11.028,0,20,8.972,20,20
	c0,18.271-33.206,21-52.999,21c-34.528,0-63.444,24.435-70.397,56.917c-14.412-0.198-25.118,1.306-34.877,2.688
	c-8.7,1.231-16.917,2.395-27.725,2.395c-17.645,0-32-14.355-32-32c0-16.506,14.747-29.234,21.087-33.94
	c5.396-4.006,8.42-10.454,8.048-17.165l-0.166-3c-0.182-3.291-1.175-6.487-2.891-9.302c-3.067-5.034-5.758-14.662-5.758-20.604
	c0-15.021,10.405-27.65,24.385-31.077c10.49,26.93,36.807,46.087,67.555,46.087c11.046,0,20-8.954,20-20s-8.954-20-20-20
	c-17.88,0-32.427-14.355-32.427-32c0-0.169-0.021-0.332-0.025-0.5c0.004-0.168,0.025-0.331,0.025-0.5c0-17.645,14.546-32,32.427-32
	c10.173,0,19.29,4.782,25.21,12.992c-0.187,2.217-0.305,4.453-0.305,6.717c0,11.046,8.954,20,20,20s20-8.954,20-20
	c0-21.344,17.14-38.709,38.208-38.709c18.015,0,33.758,13.032,37.432,30.987c1.885,9.214,9.936,15.869,19.339,15.988l1.766,0.022
	c7.555,0.05,14.515-4.071,18-10.772c5.608-10.786,16.011-17.225,27.828-17.225c17.88,0,32.427,14.355,32.427,32s-14.355,32-32,32
	c-11.046,0-20,8.954-20,20s8.954,20,20,20c30.218,0,56.129-18.721,66.792-45.167c14.148,3.306,24.72,16.015,24.72,31.155
	c0,5.933-1.588,11.674-4.592,16.604c-1.911,3.135-2.921,6.735-2.921,10.407v1c0,7.524,4.223,14.412,10.929,17.824
	c10.585,5.388,16.905,15.921,16.905,28.176C471.998,240.643,457.643,254.998,439.998,254.998z M480.212,480.285
	c6.467,8.955,4.451,21.456-4.503,27.924c-3.541,2.557-7.636,3.788-11.693,3.788c-6.204,0-12.32-2.878-16.23-8.292
	c-0.604-0.837-14.906-20.821-24.76-50.385c-3.493-10.479,2.17-21.805,12.649-25.298c10.48-3.491,21.806,2.17,25.298,12.649
	C468.786,464.111,480.1,480.13,480.212,480.285z"/>
<g>
</g>
<g>
</g>
<g>
</g>
<g>
</g>
<g>
</g>
<g>
</g>
<g>
</g>
<g>
</g>
<g>
</g>
<g>
</g>
<g>
</g>
<g>
</g>
<g>
</g>
<g>
</g>
<g>
</g>
</svg>
